<svg width="22" height="18" viewBox="0 0 22 18" fill="none" xmlns="http://www.w3.org/2000/svg">
<path fill-rule="evenodd" clip-rule="evenodd" d="M1.50347 12.3532H10.3101C10.1662 12.7731 9.99558 13.2163 9.79831 13.5081C8.71733 15.1076 6.95451 15.0119 5.30338 14.4649C4.23273 14.1102 2.90702 13.2882 1.50347 12.3532ZM10.8046 12.3532H20.4034C20.8148 12.3532 21.1514 12.6898 21.1514 13.1012V16.2972C21.1514 16.7086 20.8148 17.0452 20.4034 17.0452H20.3917C18.2717 15.7456 16.4774 14.8316 15.0092 14.8316C13.578 14.8316 12.4591 15.7931 11.6523 17.0452H0.805616C0.394204 17.0452 0.0576172 16.7086 0.0576172 16.2972V13.1012C0.0576172 12.7329 0.327435 12.4245 0.679178 12.364C2.32501 13.4741 3.90355 14.4946 5.15689 14.9098C7.0217 15.5277 8.97737 15.559 10.1865 13.77C10.431 13.4083 10.637 12.8538 10.8046 12.3532ZM19.4879 17.0452H12.2154C12.9149 16.0552 13.8461 15.3003 15.0092 15.3003C16.2405 15.3003 17.7335 16.0061 19.4879 17.0452Z" fill="black"/>
<path fill-rule="evenodd" clip-rule="evenodd" d="M0.93988 11.7907H20.2691V9.86586H0.93988V11.7907Z" fill="black"/>
<path fill-rule="evenodd" clip-rule="evenodd" d="M9.41724 0.954781L20.6662 0.954795V6.70627L7.72378 6.72148C7.7244 6.16677 7.72497 5.59189 7.72507 5.15294L7.97941 4.98839C9.51015 3.99804 9.97199 2.64328 9.41724 0.954781ZM20.6499 7.17321C20.5439 7.87538 19.9353 8.41685 19.2043 8.41685H7.7218C7.72201 8.16886 7.72262 7.7099 7.72324 7.1884L20.6499 7.17321Z" fill="black"/>
<path fill-rule="evenodd" clip-rule="evenodd" d="M8.92144 0.954822L1.86732 0.954781C1.27038 0.954781 0.542786 1.7257 0.542786 2.67666C0.542786 3.62762 1.27038 4.39855 1.86732 4.39855C2.23823 3.22528 2.89717 3.29075 3.64075 3.48999C4.71072 3.77668 5.36978 3.59568 6.56281 3.27602C7.38663 3.05532 7.7232 3.81012 7.72478 4.59483C9.08632 3.71396 9.49836 2.54978 8.92144 0.954822ZM3.01451 2.12504C3.01451 2.40156 2.79034 2.62572 2.51382 2.62572C2.23731 2.62572 2.01315 2.40156 2.01315 2.12504C2.01315 1.84853 2.23731 1.62436 2.51382 1.62436C2.79034 1.62436 3.01451 1.84853 3.01451 2.12504ZM4.87191 2.62572C4.59541 2.62572 4.37125 2.40156 4.37125 2.12504C4.37125 1.84853 4.59541 1.62436 4.87191 1.62436C5.14843 1.62436 5.3726 1.84853 5.3726 2.12504C5.3726 2.40156 5.14843 2.62572 4.87191 2.62572ZM6.72933 2.12504C6.72933 1.84853 6.9535 1.62436 7.23 1.62436C7.50652 1.62436 7.73069 1.84853 7.73069 2.12504C7.73069 2.40156 7.50652 2.62572 7.23 2.62572C6.9535 2.62572 6.72933 2.40156 6.72933 2.12504Z" fill="black"/>
</svg>
