<svg width="16" height="14" viewBox="0 0 16 14" fill="none" xmlns="http://www.w3.org/2000/svg">
<path d="M7.08597 12.7037C7.08597 12.9601 7.00995 13.2107 6.86751 13.4239C6.72507 13.6371 6.52261 13.8032 6.28575 13.9013C6.04888 13.9994 5.78824 14.0251 5.53678 13.9751C5.28532 13.9251 5.05435 13.8016 4.87306 13.6203C4.69177 13.439 4.56831 13.2081 4.51829 12.9566C4.46827 12.7051 4.49394 12.4445 4.59206 12.2076C4.69017 11.9708 4.85632 11.7683 5.06949 11.6259C5.28267 11.4834 5.53329 11.4074 5.78968 11.4074C6.13348 11.4074 6.46319 11.544 6.7063 11.7871C6.9494 12.0302 7.08597 12.3599 7.08597 12.7037ZM12.5304 11.4074C12.274 11.4074 12.0234 11.4834 11.8102 11.6259C11.5971 11.7683 11.4309 11.9708 11.3328 12.2076C11.2347 12.4445 11.209 12.7051 11.259 12.9566C11.309 13.2081 11.4325 13.439 11.6138 13.6203C11.7951 13.8016 12.0261 13.9251 12.2775 13.9751C12.529 14.0251 12.7896 13.9994 13.0265 13.9013C13.2634 13.8032 13.4658 13.6371 13.6082 13.4239C13.7507 13.2107 13.8267 12.9601 13.8267 12.7037C13.8267 12.3599 13.6901 12.0302 13.447 11.7871C13.2039 11.544 12.8742 11.4074 12.5304 11.4074ZM15.8664 3.59917L14.0976 9.34824C13.9847 9.72003 13.7549 10.0455 13.4423 10.2763C13.1298 10.5072 12.7511 10.6311 12.3625 10.6296H5.97958C5.58545 10.6284 5.20234 10.4994 4.88766 10.2621C4.57299 10.0247 4.34369 9.69184 4.23412 9.31324L2.0181 1.55556H1.38227C1.17599 1.55556 0.97816 1.47361 0.832298 1.32775C0.686436 1.18189 0.604492 0.984057 0.604492 0.777778C0.604492 0.571498 0.686436 0.373667 0.832298 0.227806C0.97816 0.0819442 1.17599 0 1.38227 0H2.2132C2.49471 0.000869709 2.76836 0.0929977 2.99309 0.262563C3.21781 0.432129 3.38149 0.66999 3.45958 0.940463L3.93208 2.59259H15.123C15.2447 2.59258 15.3648 2.62114 15.4734 2.67597C15.5821 2.73081 15.6764 2.81038 15.7487 2.90829C15.821 3.00621 15.8693 3.11973 15.8898 3.23972C15.9102 3.35971 15.9022 3.48283 15.8664 3.59917ZM14.0698 4.14815H4.37607L5.73005 8.88611C5.74555 8.94031 5.7783 8.98798 5.82332 9.0219C5.86835 9.05582 5.92321 9.07413 5.97958 9.07407H12.3625C12.418 9.07419 12.4721 9.05649 12.5168 9.02359C12.5615 8.99069 12.5944 8.94432 12.6108 8.8913L14.0698 4.14815Z" fill="black"/>
</svg>
