<svg width="24" height="24" viewBox="0 0 24 24" fill="none" xmlns="http://www.w3.org/2000/svg">
<path d="M11.6677 15.2842C9.36244 15.2842 7.68876 15.8842 6.74139 16.9895C6.04666 17.8421 5.79402 18.9158 6.04666 20.2421C6.36244 21.9789 7.90981 22.7684 9.33087 22.2316C11.2256 21.5053 10.594 19.2632 9.33087 19.1684C8.69929 19.1368 8.32034 19.5158 8.28876 20.0211C8.2256 20.7474 9.17297 20.9368 8.69929 21.4737C8.47823 21.7263 7.90981 21.6 7.43613 21.0316C7.21508 20.7474 7.05718 20.4316 6.99402 20.0842C6.80455 19.0737 6.96244 18.2211 7.46771 17.6211C8.19402 16.7368 9.67823 16.2632 11.6677 16.2632C13.6256 16.2632 15.1098 16.7684 15.8677 17.6526C16.373 18.2842 16.5624 19.1053 16.373 20.1158C16.3098 20.4632 16.1519 20.7789 15.9309 21.0632C15.4572 21.6316 14.8888 21.7579 14.6677 21.5053C14.194 20.9684 15.1414 20.7789 15.0782 20.0526C15.0467 19.5789 14.6677 19.1684 14.0361 19.2C12.7414 19.2947 12.1098 21.5368 14.0361 22.2632C15.394 22.7684 16.973 22.1053 17.3203 20.2421C17.573 18.9158 17.3203 17.8421 16.6256 16.9895C15.394 15.5684 13.2467 15.2842 11.6677 15.2842ZM12.7098 22.2316C12.0151 22.2632 11.2888 22.2632 10.594 22.2316C10.3414 22.4526 10.0256 22.6737 9.67823 22.8316C9.45718 22.9263 9.23613 22.9895 9.01508 23.0211C9.04665 23.0211 9.10981 23.0526 9.14139 23.0526C9.96245 23.179 10.8151 23.2421 11.6677 23.2421C12.5203 23.2421 13.3414 23.179 14.194 23.0526C14.2256 23.0526 14.2888 23.0211 14.3203 23.0211C14.0993 22.9895 13.8782 22.9263 13.6572 22.8316C13.2782 22.6737 12.9624 22.4526 12.7098 22.2316ZM23.0046 4.76842C21.8046 4.42105 20.5414 4.48421 19.4361 4.9579C19.4993 5.30526 19.5309 5.65263 19.5309 6C19.5309 6.25263 19.3098 6.44211 19.0572 6.41053C18.8361 6.37895 18.6782 6.22105 18.6782 6C18.6782 5.93684 18.6782 5.90527 18.6782 5.84211C18.6782 5.74737 18.6782 5.68421 18.6782 5.58948C18.6782 5.52632 18.6782 5.46316 18.6782 5.4C18.6467 4.89474 18.5203 4.3579 18.3309 3.88421C17.6993 2.4 16.4993 1.26316 14.9203 0.66316C14.6361 0.568423 14.3203 0.631581 14.0993 0.852633C13.8782 1.07369 13.8467 1.38948 13.973 1.67369C14.6361 3.22105 14.0993 4.45263 13.4993 5.21053C12.8361 5.43158 12.394 5.49474 11.6677 5.49474C10.9414 5.49474 10.5309 5.4 9.83613 5.21053C9.23613 4.42105 8.69929 3.22105 9.36244 1.67369C9.48876 1.38948 9.4256 1.07369 9.23613 0.852633C9.01508 0.631581 8.69929 0.536844 8.41508 0.66316C6.80455 1.26316 5.60455 2.4 5.06771 3.88421C4.87823 4.3579 4.7835 4.86316 4.72034 5.4V5.58948V5.84211V6C4.72034 6.22105 4.56244 6.41053 4.34139 6.41053C4.08876 6.44211 3.86771 6.25263 3.86771 6C3.86771 5.65263 3.89929 5.30526 3.96244 4.9579C2.85718 4.48421 1.59402 4.42105 0.394023 4.76842C0.20455 6.50527 0.80455 8.24211 2.16244 9.34737C2.76244 9.85263 3.4256 10.1684 4.15192 10.3579C3.93087 12.0632 4.56244 13.8 5.8256 15.2211C6.10981 15.5368 6.36244 15.8211 6.45718 16.2C6.89929 15.7263 7.37297 15.4105 7.90981 15.1895C8.92034 14.7789 9.74139 14.0526 10.1519 13.0421C10.3414 12.5368 10.4677 11.9684 10.4677 11.3684C10.4677 9.18948 6.86771 7.26316 8.35192 6.18948C8.73087 6.03158 9.10981 5.96842 9.52034 6.09474C10.3098 6.34737 10.8467 6.47369 11.7309 6.47369C12.6151 6.47369 13.1519 6.34737 13.9414 6.09474C14.3203 5.96842 14.7309 6.03158 15.1098 6.18948C16.594 7.26316 12.994 9.18948 12.994 11.3684C12.994 11.9684 13.1203 12.5053 13.3098 13.0421C13.6888 14.0526 14.5414 14.7789 15.5519 15.1895C16.0888 15.4105 16.5624 15.7263 17.0046 16.2C17.1309 15.8211 17.3519 15.5684 17.6361 15.2211C18.8993 13.8 19.5309 12.0632 19.3098 10.3579C20.0361 10.1684 20.6993 9.85263 21.2993 9.34737C22.594 8.21053 23.1624 6.50527 23.0046 4.76842ZM8.19402 10.9579C8.19402 11.4 7.84666 11.7474 7.40455 11.7474C6.96244 11.7474 6.61508 11.4 6.61508 10.9579C6.61508 10.5158 6.96244 10.1684 7.40455 10.1684C7.84666 10.1684 8.19402 10.5474 8.19402 10.9579ZM6.77297 5.96842C6.39402 6.28421 6.04666 6.6 5.73087 6.91579C5.54139 6 5.60455 5.05263 5.92034 4.2C6.23613 3.41053 6.89929 2.33684 8.32034 1.70526C7.84666 3.12632 8.16244 4.26316 8.60455 5.11579C8.03613 5.21053 7.40455 5.49474 6.77297 5.96842ZM15.8993 11.7474C15.4572 11.7474 15.1098 11.4 15.1098 10.9579C15.1098 10.5158 15.4572 10.1684 15.8993 10.1684C16.3414 10.1684 16.6888 10.5158 16.6888 10.9579C16.6888 11.4 16.3414 11.7474 15.8993 11.7474ZM17.573 6.94737C17.2572 6.63158 16.9098 6.31579 16.5309 6C15.8993 5.52632 15.2677 5.24211 14.6677 5.14737C15.1098 4.32632 15.4256 3.1579 14.9519 1.73684C16.373 2.4 17.0361 3.44211 17.3519 4.23158C17.6993 5.08421 17.7624 6.03158 17.573 6.94737Z" fill="#1E232D"/>
</svg>
