<svg width="22" height="22" viewBox="0 0 22 22" fill="none" xmlns="http://www.w3.org/2000/svg">
<path d="M1.20898 11H21.209M1.20898 11C1.20898 16.5228 5.68614 21 11.209 21M1.20898 11C1.20898 5.47715 5.68614 1 11.209 1M21.209 11C21.209 16.5228 16.7318 21 11.209 21M21.209 11C21.209 5.47715 16.7318 1 11.209 1M11.209 1C13.7103 3.73835 15.1317 7.29203 15.209 11C15.1317 14.708 13.7103 18.2616 11.209 21M11.209 1C8.7077 3.73835 7.28623 7.29203 7.20898 11C7.28623 14.708 8.7077 18.2616 11.209 21" stroke="#737373" stroke-width="1.5" stroke-linecap="round" stroke-linejoin="round"/>
</svg>
