<svg width="25" height="24" viewBox="0 0 25 24" fill="none" xmlns="http://www.w3.org/2000/svg">
<path d="M10.9444 5.7855C11.1565 5.71519 11.375 5.66556 11.5967 5.63728C11.9269 5.12255 12.6505 4.32633 13.7624 3.53869C14.1659 3.25293 14.5874 2.99345 15.0242 2.76188C13.2362 3.07392 12.0689 3.86555 11.3654 4.54491C10.9397 4.95324 10.5773 5.42282 10.2903 5.93813C10.3039 5.93606 10.3172 5.93344 10.3309 5.93152C10.5397 5.90327 10.7452 5.85436 10.9444 5.7855Z" fill="black"/>
<path d="M2.65156 15.2721C2.68242 15.2597 2.71025 15.2408 2.73316 15.2167C2.75607 15.1926 2.77353 15.1639 2.78436 15.1324C2.7961 15.099 2.80061 15.0635 2.79762 15.0283C2.79462 14.993 2.78417 14.9588 2.76697 14.9279C2.70781 14.821 2.61102 14.6884 2.48572 14.6633C2.35508 14.6373 2.19809 14.7256 2.07917 14.8146C1.95154 15.0318 1.86927 15.2726 1.83734 15.5224C1.81547 15.6823 1.82123 15.8448 1.85436 16.0027C2.01608 15.7366 2.27413 15.4251 2.65156 15.2721Z" fill="black"/>
<path d="M12.1952 5.60513C12.4131 5.60946 12.6291 5.64656 12.836 5.71519C13.1393 5.82615 13.4544 5.90165 13.7751 5.94019L14.3056 5.99874C14.564 5.73155 15.4025 4.93289 16.785 4.25747C18.2025 3.56494 20.4639 2.89097 23.3841 3.43524C21.699 2.27939 19.8561 1.875 17.8964 2.23378C15.2429 2.71945 13.0605 4.49888 12.1952 5.60513Z" fill="black"/>
<path d="M18.8396 4.00477C18.9008 4.00477 18.9628 4.00511 19.0259 4.0058C20.0899 4.01953 21.0003 4.16105 21.7446 4.42767C21.4646 4.13467 21.1341 3.89452 20.7689 3.71873C20.118 3.75031 19.4717 3.84612 18.8396 4.00477Z" fill="black"/>
<path d="M8.85396 17.4562L8.58649 17.4833C8.18391 17.5253 7.78619 17.6052 7.39863 17.722L7.38696 17.7255C7.41804 17.8305 7.44509 17.9188 7.46857 17.9955C7.60573 18.4429 7.64496 18.5707 7.75451 19.5779L8.0892 19.0637C8.1152 19.0238 8.15276 18.9927 8.19687 18.9747C8.24097 18.9566 8.28953 18.9525 8.33607 18.9627C8.38261 18.973 8.42492 18.9972 8.45735 19.0321C8.48978 19.067 8.51079 19.111 8.51759 19.1582L8.68784 20.34C8.99384 19.6172 9.33893 18.4263 8.85396 17.4562Z" fill="black"/>
<path d="M10.249 10.8944C10.3675 10.8944 10.4635 10.7983 10.4635 10.6799C10.4635 10.5614 10.3675 10.4654 10.249 10.4654C10.1306 10.4654 10.0345 10.5614 10.0345 10.6799C10.0345 10.7983 10.1306 10.8944 10.249 10.8944Z" fill="black"/>
<path d="M3.17717 14.7009C3.22646 14.7898 3.25633 14.8882 3.26481 14.9895C3.27328 15.0909 3.26017 15.1929 3.22634 15.2888C3.19324 15.3826 3.14061 15.4684 3.07193 15.5404C3.00325 15.6124 2.92008 15.669 2.82791 15.7065C2.45225 15.8588 2.22791 16.2674 2.13416 16.4777C2.33 16.641 2.61266 16.7196 2.95883 16.7056C3.17234 16.6971 3.96308 16.4303 4.2095 16.3087C4.88309 15.9764 5.37753 15.8982 5.70987 15.9068C5.76996 15.9087 5.82853 15.9262 5.87979 15.9576C5.93106 15.989 5.97326 16.0332 6.00223 16.0859C6.03121 16.1386 6.04596 16.1979 6.04503 16.258C6.0441 16.3181 6.02753 16.3769 5.99694 16.4287L6.00237 16.4318C5.99769 16.4293 5.5092 16.1902 4.41692 16.7291C4.17608 16.8479 3.30312 17.161 2.97758 17.174C2.94511 17.1753 2.91297 17.176 2.88116 17.176C2.7155 17.1771 2.55038 17.1571 2.38976 17.1165C2.47541 17.2771 2.59377 17.418 2.7372 17.53C3.1768 17.8743 3.85489 17.9707 4.75283 17.8166L4.75798 17.8158C4.77172 17.8138 6.14478 17.6073 7.26472 17.2729C7.68071 17.1476 8.1076 17.0619 8.53972 17.0169L11.4101 16.7267C11.0997 14.9913 11.7241 12.459 12.1534 11.6621C12.7716 10.5145 13.3897 10.0599 13.4157 10.0411C13.4406 10.0231 13.4689 10.0101 13.4989 10.003C13.5288 9.99586 13.5599 9.99472 13.5903 9.99961C13.6207 10.0045 13.6498 10.0153 13.676 10.0315C13.7022 10.0476 13.725 10.0688 13.743 10.0938C13.7611 10.1187 13.774 10.147 13.7811 10.1769C13.7882 10.2069 13.7893 10.238 13.7844 10.2684C13.7795 10.2988 13.7687 10.3279 13.7525 10.3541C13.7363 10.3803 13.7152 10.403 13.6902 10.4211C13.6855 10.4246 13.1281 10.8411 12.566 11.8844C12.1301 12.694 11.4467 15.5912 11.9983 17.1356C12.3544 18.1323 12.1124 18.8389 11.8467 19.2562C11.8315 19.2802 11.8227 19.3077 11.8212 19.336C11.8197 19.3644 11.8256 19.3927 11.8383 19.4181C11.8513 19.4458 11.8714 19.4696 11.8964 19.4873C11.9214 19.5049 11.9506 19.5157 11.9811 19.5188C12.8209 19.605 14.4262 19.4886 15.744 17.741C16.2279 17.0981 16.4425 16.2922 16.3425 15.4938C16.2481 14.7105 16.2044 13.578 16.5323 12.6309C17.0364 11.175 16.4051 10.3883 16.3986 10.3806C16.3607 10.3325 16.3431 10.2716 16.3496 10.2107C16.3561 10.1498 16.3861 10.0939 16.4332 10.0549C16.4803 10.0159 16.5408 9.99683 16.6018 10.0018C16.6628 10.0068 16.7194 10.0355 16.7596 10.0817C16.7927 10.1218 17.5644 11.082 16.9752 12.7842C16.6765 13.647 16.7193 14.7034 16.8078 15.4377C16.9226 16.3564 16.6754 17.2838 16.1184 18.0234C15.2339 19.1963 14.2263 19.7033 13.361 19.8993L13.6193 20.803C13.6863 21.0174 13.7991 21.2147 13.9497 21.3814C14.1004 21.548 14.2854 21.6799 14.492 21.7681C14.6986 21.8563 14.9219 21.8986 15.1465 21.8922C15.371 21.8857 15.5915 21.8306 15.7927 21.7306L21.8713 18.711C22.0904 18.6022 22.2807 18.4431 22.4267 18.2468C22.5727 18.0504 22.6702 17.8224 22.7113 17.5812C22.7524 17.3401 22.736 17.0926 22.6633 16.859C22.5907 16.6253 22.4639 16.4122 22.2932 16.2369L18.3916 12.2277C18.5322 12.608 18.7484 12.9781 18.9846 13.3817C19.3268 13.9664 19.7144 14.6286 19.979 15.4973C19.9987 15.5573 19.9942 15.6226 19.9664 15.6792C19.9386 15.7359 19.8898 15.7795 19.8304 15.8008C19.8008 15.8103 19.7695 15.8139 19.7385 15.8112C19.7075 15.8086 19.6773 15.7997 19.6498 15.7853C19.6222 15.7709 19.5978 15.7511 19.5779 15.7271C19.5581 15.7031 19.5432 15.6754 19.5342 15.6456C19.2855 14.8239 18.9108 14.1835 18.5801 13.6184C18.1614 12.903 17.7998 12.285 17.7606 11.4953C17.6813 9.89883 17.0762 8.56655 15.9618 7.53548C15.487 7.09039 14.9384 6.73138 14.3404 6.47456L13.7233 6.40645C13.367 6.364 13.0167 6.28042 12.6795 6.15736C12.2077 5.99067 11.4709 6.09853 11.0984 6.22838C10.8699 6.30746 10.634 6.36366 10.3944 6.39614C9.035 6.58284 8.18515 7.72214 7.49544 8.77542C7.15514 9.29527 6.76924 9.78379 6.34231 10.2352L2.58266 14.2049C2.82242 14.2547 3.02239 14.4212 3.17717 14.7009ZM10.2491 9.9967C10.3842 9.99672 10.5162 10.0368 10.6286 10.1119C10.7409 10.187 10.8285 10.2937 10.8801 10.4185C10.9318 10.5433 10.9454 10.6807 10.919 10.8132C10.8926 10.9457 10.8275 11.0674 10.732 11.163C10.6365 11.2585 10.5147 11.3235 10.3822 11.3499C10.2497 11.3762 10.1123 11.3627 9.98751 11.311C9.86269 11.2593 9.756 11.1717 9.68094 11.0594C9.60588 10.947 9.56581 10.815 9.56581 10.6799C9.56603 10.4987 9.63809 10.3251 9.76618 10.197C9.89427 10.0689 10.0679 9.9969 10.2491 9.9967Z" fill="black"/>
</svg>
