<svg width="25" height="24" viewBox="0 0 25 24" fill="none" xmlns="http://www.w3.org/2000/svg">
<g clip-path="url(#clip0_195_7969)">
<path d="M9.71715 17.5978C9.74115 17.2394 9.82932 16.8991 9.97252 16.5883C9.50649 16.6678 9.07477 16.8797 8.73413 17.2046L9.71715 17.5978Z" fill="black"/>
<path d="M11.3773 15.1711L10.7482 14.1223C10.6952 14.0337 10.535 14.078 10.535 14.1815V15.7224H10.581C10.8119 15.496 11.0813 15.3102 11.3773 15.1711Z" fill="black"/>
<path d="M14.674 15.722V14.1811C14.674 14.0772 14.5139 14.0333 14.4609 14.1219L13.8318 15.1707C14.1277 15.3098 14.3971 15.4956 14.6281 15.722H14.674Z" fill="black"/>
<path d="M21.6333 1.24885C21.6837 1.16522 21.7102 1.06922 21.7102 0.971955V0.918143C21.7102 0.737674 21.6204 0.570049 21.4702 0.469877L20.8924 0.0849396C20.647 -0.0789823 20.2832 0.00300209 20.1317 0.255893L18.299 3.31041C18.9479 3.33028 19.546 3.55088 20.0352 3.91219L21.6333 1.24885Z" fill="black"/>
<path d="M2.25708 10.7553H22.9524V11.583H2.25708V10.7553Z" fill="black"/>
<path d="M14.9948 7.95028C15.8118 8.28886 16.4178 8.98792 16.6346 9.85544L16.6528 9.92787H16.928L18.507 7.40142C18.7074 7.08107 18.8129 6.7123 18.8129 6.33439V6.14524C18.8129 5.03561 17.9102 4.13288 16.8005 4.13288C16.1259 4.13288 15.5001 4.46771 15.1259 5.02895L13.9728 6.75861C14.4232 7.03719 14.7833 7.44946 14.9948 7.95028Z" fill="black"/>
<path d="M5.69321 9.79005C5.8952 8.98253 6.56697 8.39522 7.37445 8.28924C7.65795 7.76648 8.19726 7.44407 8.79534 7.44407C9.22702 7.44407 9.63306 7.61212 9.93854 7.91756L10.0002 7.97925L9.41499 8.56449L9.3533 8.5028C9.20635 8.35627 9.00314 8.27185 8.79539 8.27185C8.4945 8.27185 8.22421 8.43905 8.08968 8.70812L7.89393 9.09967H7.6377C7.11949 9.09967 6.67043 9.43783 6.51813 9.92745H15.7907C15.5982 9.33227 15.1425 8.86454 14.5428 8.66466L14.3466 8.59927L14.2812 8.4031C14.0742 7.78266 13.5457 7.3311 12.9008 7.22348L11.578 7.00288L10.9741 6.39898C10.5805 6.00537 10.0573 5.78848 9.50021 5.78848C8.94309 5.78848 8.42034 6.00537 8.0263 6.39898L7.4278 6.99791L6.47252 7.18874C5.85456 7.31249 5.34713 7.76034 5.14805 8.35801L5.06775 8.59932L4.87158 8.66471C4.27227 8.86464 3.81613 9.33231 3.62366 9.92749H5.65881L5.69321 9.79005ZM10.3637 8.68576C10.8972 8.15185 11.8284 8.15185 12.362 8.68576L12.4832 8.80703L11.898 9.39227L11.7767 9.271C11.559 9.05331 11.1666 9.05331 10.9489 9.271L10.8277 9.39227L10.2424 8.80703L10.3637 8.68576Z" fill="black"/>
<path d="M14.6741 18.65V17.7915C14.6741 16.6504 13.7457 15.722 12.6045 15.722C11.4634 15.722 10.535 16.6504 10.535 17.7915V18.65C11.0983 18.3714 11.8144 18.2054 12.6045 18.2054C13.3947 18.2054 14.1107 18.3714 14.6741 18.65ZM13.8463 16.9637C14.0747 16.9637 14.2602 17.1491 14.2602 17.3776C14.2602 17.6061 14.0747 17.7915 13.8463 17.7915C13.6178 17.7915 13.4324 17.6061 13.4324 17.3776C13.4324 17.1491 13.6178 16.9637 13.8463 16.9637ZM11.3629 17.7915C11.1344 17.7915 10.949 17.6061 10.949 17.3776C10.949 17.1491 11.1344 16.9637 11.3629 16.9637C11.5914 16.9637 11.7768 17.1491 11.7768 17.3776C11.7768 17.6061 11.5914 17.7915 11.3629 17.7915Z" fill="black"/>
<path d="M23.644 23.2078L22.952 22.5157V14.3172C22.952 13.5602 22.5911 12.8578 21.9859 12.4112H3.22311C2.61799 12.8578 2.25705 13.5598 2.25705 14.3172V21.9309H6.39602V22.7587H2.01456L1.56507 23.2082C1.47896 23.2943 1.42932 23.4139 1.42932 23.536C1.42932 23.7918 1.6375 24 1.8933 24H23.3158C23.5716 24 23.7798 23.7918 23.7798 23.536C23.7798 23.4139 23.7301 23.2943 23.644 23.2078ZM8.87944 22.7583H7.22384V21.9305H8.87944V22.7583ZM12.6045 22.3444C10.7478 22.3444 9.29335 21.4355 9.29335 20.2749C9.29335 19.9036 9.44359 19.5584 9.70726 19.26V18.4857L7.42419 17.5722L7.70732 17.148C8.1771 16.4435 8.89767 15.9679 9.70726 15.7966V14.1812C9.70726 13.6613 10.1298 13.2387 10.6497 13.2387C10.9788 13.2387 11.2883 13.4142 11.458 13.6961L12.196 14.9262C12.3297 14.9072 12.4654 14.8939 12.6045 14.8939C12.7436 14.8939 12.8793 14.9072 13.013 14.9262L13.751 13.6961C13.9202 13.4138 14.2303 13.2387 14.5593 13.2387C15.0787 13.2387 15.5017 13.6613 15.5017 14.1812V15.7966C16.3113 15.968 17.0319 16.4435 17.5017 17.148L17.7848 17.5722L15.5017 18.4861V19.2605C15.7654 19.5589 15.9156 19.9041 15.9156 20.2753C15.9157 21.4355 14.4613 22.3444 12.6045 22.3444ZM22.3369 19.8089L21.6155 19.4078L21.0121 20.3883L22.3328 21.1586L21.9156 21.8742L20.5778 21.094L19.9429 22.1258L21.0956 22.8174L20.6697 23.5273L19.5091 22.8311L19.1656 23.3894L18.4607 22.9552L18.7993 22.4052L17.9061 21.8692L17.517 22.55L16.7985 22.1395L17.1962 21.4433L16.5307 21.0438L16.9566 20.334L17.6068 20.7243L18.1913 19.702L16.9492 18.9772L17.3664 18.2616L18.6023 18.9826L19.1441 18.0348L18.6126 17.7396L19.0149 17.0162L19.5551 17.3163L20.1101 16.3448L20.8286 16.7554L20.2785 17.7182L21.3261 18.3001L21.7727 17.5746L22.4776 18.0087L22.0509 18.7025L22.7404 19.0853L22.3369 19.8089Z" fill="black"/>
<path d="M19.3167 19.3995L20.2968 19.9715L20.8911 19.0055L19.8672 18.4368L19.3167 19.3995Z" fill="black"/>
<path d="M19.2091 7.83975L17.9041 9.92744H18.9711L20.2297 7.41056C20.3858 7.09808 20.4686 6.74792 20.4686 6.39776C20.4686 5.39406 19.8117 4.54187 18.9057 4.24547C19.361 4.7492 19.6408 5.41431 19.6408 6.14524V6.33439C19.6407 6.8675 19.4913 7.38777 19.2091 7.83975Z" fill="black"/>
<path d="M15.2369 16.5883C15.3797 16.8996 15.4683 17.2398 15.4923 17.5978L16.4753 17.2046C16.1343 16.8797 15.703 16.6678 15.2369 16.5883Z" fill="black"/>
<path d="M18.3168 21.1499L19.2331 21.6999L19.8627 20.6768L18.9057 20.1189L18.3168 21.1499Z" fill="black"/>
<path d="M12.6046 19.0332C11.141 19.0332 10.1212 19.6876 10.1212 20.2749C10.1212 20.8622 11.141 21.5166 12.6046 21.5166C14.0681 21.5166 15.088 20.8622 15.088 20.2749C15.088 19.6876 14.0681 19.0332 12.6046 19.0332ZM11.7768 20.6888C11.5483 20.6888 11.3629 20.5034 11.3629 20.2749C11.3629 20.0464 11.5483 19.861 11.7768 19.861C12.0052 19.861 12.1907 20.0464 12.1907 20.2749C12.1907 20.5034 12.0052 20.6888 11.7768 20.6888ZM13.4324 20.6888C13.2039 20.6888 13.0185 20.5034 13.0185 20.2749C13.0185 20.0464 13.2039 19.861 13.4324 19.861C13.6608 19.861 13.8463 20.0464 13.8463 20.2749C13.8463 20.5034 13.6608 20.6888 13.4324 20.6888Z" fill="black"/>
</g>
<defs>
<clipPath id="clip0_195_7969">
<rect width="24" height="24" fill="white" transform="translate(0.604492)"/>
</clipPath>
</defs>
</svg>
