<svg width="25" height="24" viewBox="0 0 25 24" fill="none" xmlns="http://www.w3.org/2000/svg">
<g clip-path="url(#clip0_195_7991)">
<path d="M13.6196 7.01512C13.887 6.74775 14.322 6.74775 14.5893 7.01512C14.6625 7.08825 14.7585 7.125 14.8545 7.125C14.9505 7.125 15.0465 7.08825 15.1196 7.01512C15.2662 6.8685 15.2662 6.6315 15.1196 6.48487C14.5601 5.925 13.6488 5.925 13.0893 6.48487C12.9427 6.6315 12.9427 6.8685 13.0893 7.01512C13.236 7.16175 13.473 7.16175 13.6196 7.01512Z" fill="black"/>
<path d="M14.1045 7.875C14.3116 7.875 14.4795 7.70711 14.4795 7.5C14.4795 7.29289 14.3116 7.125 14.1045 7.125C13.8974 7.125 13.7295 7.29289 13.7295 7.5C13.7295 7.70711 13.8974 7.875 14.1045 7.875Z" fill="black"/>
<path d="M10.0893 6.48487C9.94271 6.6315 9.94271 6.8685 10.0893 7.01512C10.236 7.16175 10.473 7.16175 10.6196 7.01512C10.887 6.74775 11.322 6.74775 11.5893 7.01512C11.6625 7.08825 11.7585 7.125 11.8545 7.125C11.9505 7.125 12.0465 7.08825 12.1196 7.01512C12.2662 6.8685 12.2662 6.6315 12.1196 6.48487C11.5601 5.925 10.6488 5.925 10.0893 6.48487Z" fill="black"/>
<path d="M11.1045 7.875C11.3116 7.875 11.4795 7.70711 11.4795 7.5C11.4795 7.29289 11.3116 7.125 11.1045 7.125C10.8974 7.125 10.7295 7.29289 10.7295 7.5C10.7295 7.70711 10.8974 7.875 11.1045 7.875Z" fill="black"/>
<path d="M14.4795 19.125C14.6866 19.125 14.8545 18.9571 14.8545 18.75C14.8545 18.5429 14.6866 18.375 14.4795 18.375C14.2724 18.375 14.1045 18.5429 14.1045 18.75C14.1045 18.9571 14.2724 19.125 14.4795 19.125Z" fill="black"/>
<path d="M10.7295 19.125C10.9366 19.125 11.1045 18.9571 11.1045 18.75C11.1045 18.5429 10.9366 18.375 10.7295 18.375C10.5224 18.375 10.3545 18.5429 10.3545 18.75C10.3545 18.9571 10.5224 19.125 10.7295 19.125Z" fill="black"/>
<path d="M23.3779 15.0525C22.9054 14.7382 22.269 14.8466 21.9289 15.3007L21.3109 16.125H21.3082C21.3911 15.5261 21.0937 14.9411 20.541 14.6647C20.3662 14.5774 20.1525 14.6396 20.0516 14.8069L19.4055 15.8839C19.3192 15.6499 19.218 15.4286 19.1002 15.2231C18.7856 14.6745 18.3694 14.2043 17.8714 13.812C17.8965 13.527 17.7562 13.2394 17.4922 13.0868C17.295 12.9724 17.085 12.8696 16.8697 12.7811C16.6027 12.672 16.3024 12.735 16.0954 12.9214C15.8749 12.8614 15.6611 12.8126 15.4545 12.7871C15.2209 12.7579 15.0229 12.6229 14.9239 12.4256C14.8785 12.3349 14.8545 12.2325 14.8545 12.1305V11.6164C14.8744 11.601 14.895 11.5834 14.9152 11.5673C15.2719 11.562 15.6075 11.4536 15.8767 11.2451C16.2997 10.9181 16.542 10.4246 16.542 9.891C16.542 9.70912 16.41 9.56475 16.2382 9.53025C16.3129 9.23438 16.3545 8.93213 16.3545 8.625V8.21212C17.2091 8.03775 17.8545 7.28062 17.8545 6.375C17.8545 6.04388 17.7079 5.74875 17.4795 5.5425V4.125C17.4795 2.6775 16.3016 1.5 14.8545 1.5C14.5196 1.5 14.1881 1.56713 13.8776 1.69238C13.4884 1.10438 12.8452 0.75 12.1121 0.75C9.90224 0.75 8.10449 2.54775 8.10449 4.75763V5.31938C7.66912 5.47463 7.35449 5.88713 7.35449 6.37537C7.35449 7.28062 7.99987 8.03813 8.85449 8.2125V8.625C8.85449 8.93213 8.89612 9.23438 8.97074 9.52987C8.79899 9.564 8.66699 9.70875 8.66699 9.89062C8.66699 10.4242 8.90924 10.9178 9.33224 11.2448C9.60187 11.4532 9.93787 11.5624 10.2945 11.5676C10.3144 11.5834 10.3346 11.601 10.3541 11.616V12.1301C10.3541 12.2321 10.3301 12.3345 10.284 12.426C10.1854 12.6229 9.98737 12.7579 9.75374 12.7867C9.54712 12.8123 9.33337 12.861 9.11324 12.921C8.90624 12.7343 8.60549 12.6713 8.33887 12.7811C8.12362 12.8696 7.91362 12.9724 7.71637 13.0864C7.45237 13.239 7.31212 13.5266 7.33724 13.8116C6.83924 14.2039 6.42299 14.6741 6.10837 15.2228C5.69699 15.9409 5.47949 16.8045 5.47949 17.7206V20.4083L4.54237 18.936C4.65974 18.7796 4.72949 18.5854 4.72949 18.375C4.72949 18.1642 4.65937 17.9692 4.54162 17.8125C4.65937 17.6558 4.72949 17.4608 4.72949 17.25C4.72949 16.7974 4.40699 16.4186 3.97949 16.3316V15.75H4.72949C4.93687 15.75 5.10449 15.582 5.10449 15.375V13.7981C5.10449 12.8287 5.00812 11.8556 4.81799 10.9061C4.49699 9.30112 3.61649 7.85437 2.33887 6.8325C2.22599 6.74212 2.07112 6.72488 1.94174 6.78713C1.81237 6.84938 1.72949 6.981 1.72949 7.125V15.375V16.605C1.50112 16.8109 1.35449 17.1064 1.35449 17.4375V19.3125C1.35449 19.6436 1.50112 19.9388 1.72949 20.145V21.375C1.72949 21.582 1.89712 21.75 2.10449 21.75H2.92537L3.65174 23.0573C3.71812 23.1761 3.84337 23.25 3.97949 23.25H18.6367C19.8052 23.25 20.7907 22.3372 20.88 21.1725L21.0956 18.375H21.2445C21.9986 18.375 22.6984 18.0004 23.1169 17.373L23.6745 16.536C24.0019 16.0455 23.8687 15.3799 23.3779 15.0525ZM20.469 15.5696C20.5676 15.7211 20.6025 15.9105 20.5556 16.098L20.5489 16.125H20.1356L20.469 15.5696ZM17.4795 22.1561V19.875V19.0204L17.988 18.8509L17.4795 22.1561ZM18.45 15.5963C18.5985 15.8554 18.7091 16.1539 18.7972 16.4708C18.5569 16.6695 18.3765 16.9414 18.2966 17.2616L18.1346 17.9096C18.1316 17.9212 18.1357 17.9329 18.1339 17.9445L18.1275 17.9434L18.1159 18.0176L17.4795 18.2295V17.25C17.4795 17.043 17.3119 16.875 17.1045 16.875C16.8971 16.875 16.7295 17.043 16.7295 17.25V19.431C16.2941 19.2758 15.9795 18.8633 15.9795 18.375V17.7135L17.5714 14.529C17.9227 14.8346 18.2175 15.1916 18.45 15.5963ZM11.3362 17.25L9.50699 13.5919C9.62287 13.566 9.73612 13.545 9.84637 13.5311C10.3084 14.6306 11.3914 15.375 12.6045 15.375C13.8176 15.375 14.9002 14.6306 15.3622 13.5311C15.4725 13.545 15.5861 13.566 15.702 13.5919L13.8727 17.25H11.3362ZM10.9552 12.762C10.9984 12.6761 11.0287 12.5842 11.0535 12.4909C11.463 12.8865 12.0135 13.125 12.6045 13.125C13.1955 13.125 13.7456 12.8865 14.1555 12.4909C14.1802 12.5839 14.2106 12.6757 14.2534 12.7612C14.3516 12.9577 14.4952 13.1235 14.6681 13.2525C14.3194 14.0715 13.5105 14.625 12.6045 14.625C11.6985 14.625 10.8896 14.0715 10.5405 13.2525C10.7134 13.1239 10.857 12.9581 10.9552 12.762ZM11.211 11.4049L11.2837 11.3865C11.5541 11.319 11.8102 11.2073 12.0454 11.0543C12.4065 10.8195 12.8025 10.8199 13.1625 11.0543C13.398 11.2076 13.6545 11.3194 13.9245 11.3869L13.9972 11.4052C13.7767 11.9858 13.2221 12.375 12.6045 12.375C11.9869 12.375 11.4322 11.9858 11.211 11.4049ZM12.7901 8.65537L12.6915 8.55675L12.9622 8.052C13.0605 7.86975 12.9919 7.64213 12.8092 7.54425C12.6266 7.446 12.399 7.515 12.3015 7.69763L11.8991 8.44763C11.862 8.51662 11.8504 8.59313 11.8586 8.66738C11.7424 8.69625 11.6291 8.73562 11.5241 8.7975C10.8862 9.1725 10.2952 9.396 9.73012 9.47812C9.64724 9.20138 9.60449 8.91525 9.60449 8.625V6.375V6H10.3545C11.4814 6 12.5644 5.5305 13.3369 4.72425C13.8952 5.42662 14.7187 5.8785 15.6045 5.97862V6.375V8.625C15.6045 8.91525 15.5617 9.20138 15.4789 9.47812C14.9137 9.396 14.3227 9.17212 13.6845 8.79712C13.4156 8.64 13.1006 8.59312 12.7901 8.65537ZM16.3545 7.43587V6.375C16.3545 6.16838 16.5225 6 16.7295 6C16.9365 6 17.1045 6.16838 17.1045 6.375C17.1045 6.864 16.791 7.281 16.3545 7.43587ZM8.10449 6.375C8.10449 6.16838 8.27249 6 8.47949 6C8.68649 6 8.85449 6.16838 8.85449 6.375V7.43587C8.41799 7.281 8.10449 6.864 8.10449 6.375ZM6.75899 15.5963C6.99112 15.1916 7.28624 14.8346 7.63724 14.5294L9.22949 17.7135V18.375C9.22949 18.8633 8.91487 19.2758 8.47949 19.431V17.25C8.47949 17.043 8.31187 16.875 8.10449 16.875C7.89712 16.875 7.72949 17.043 7.72949 17.25V18.2295L6.22949 17.7296V17.7206C6.22949 16.9354 6.41249 16.2008 6.75899 15.5963ZM6.22949 18.5205L7.72949 19.0204V19.875V22.5H6.81037L6.22949 21.5872V18.5205ZM3.79199 19.6875H2.47949C2.27249 19.6875 2.10449 19.5191 2.10449 19.3125V17.4375C2.10449 17.2309 2.27249 17.0625 2.47949 17.0625H3.79199C3.89512 17.0625 3.97949 17.1465 3.97949 17.25C3.97949 17.3535 3.89512 17.4375 3.79199 17.4375C3.58462 17.4375 3.41699 17.6055 3.41699 17.8125C3.41699 18.0195 3.58462 18.1875 3.79199 18.1875C3.89512 18.1875 3.97949 18.2715 3.97949 18.375C3.97949 18.4785 3.89512 18.5625 3.79199 18.5625C3.58462 18.5625 3.41699 18.7305 3.41699 18.9375C3.41699 19.1445 3.58462 19.3125 3.79199 19.3125C3.89512 19.3125 3.97949 19.3965 3.97949 19.5C3.97949 19.6035 3.89512 19.6875 3.79199 19.6875ZM2.47949 7.97587C3.29024 8.8245 3.85049 9.8925 4.08262 11.0531C4.26299 11.9543 4.35449 12.8779 4.35449 13.7981V15H2.47949V7.97587ZM5.85449 22.5H4.19999L3.76237 21.7125C3.88987 21.6525 3.97949 21.525 3.97949 21.375V20.4184C4.15687 20.3824 4.31549 20.2946 4.44112 20.1735L5.92162 22.5H5.85449ZM10.7295 22.5V21.75H14.4795V22.5H10.7295ZM20.1322 21.1151C20.0726 21.8918 19.4156 22.5 18.6367 22.5H18.1856L18.8201 18.375H20.3434L20.1322 21.1151ZM23.0505 16.1201L22.4929 16.9571C22.2139 17.3752 21.7474 17.625 21.2445 17.625H18.9784L19.0237 17.4431C19.1077 17.1086 19.407 16.875 19.7516 16.875H21.4984C21.6161 16.875 21.7275 16.8195 21.7984 16.725L22.5289 15.7507C22.6305 15.6154 22.8206 15.582 22.962 15.6765C23.1086 15.7744 23.1484 15.9735 23.0505 16.1201Z" fill="black"/>
<path d="M20.6445 14.0696C20.6513 14.0764 20.6595 14.0809 20.6663 14.0876C20.6719 14.0925 20.6771 14.097 20.6831 14.1015C21.0341 14.4379 21.4924 14.625 21.9739 14.625C22.0418 14.625 22.1096 14.6213 22.1779 14.6141C22.749 14.5526 23.2568 14.2339 23.5706 13.74C23.9516 13.1407 23.952 12.3641 23.571 11.7615C23.3858 11.4679 23.1285 11.2324 22.8278 11.0801C22.5518 10.9406 22.3826 10.6492 22.3763 10.3001C22.3624 9.57525 22.0084 8.91863 21.405 8.49863C20.6719 7.98863 19.677 7.96913 18.9293 8.45138C18.3458 8.8275 17.9685 9.43238 17.8946 10.1104C17.8208 10.7884 18.0533 11.4548 18.5329 11.9389L20.6445 14.0696ZM19.3358 9.081C19.5746 8.92687 19.8518 8.85038 20.1289 8.85038C20.4266 8.85038 20.7244 8.9385 20.9764 9.11363C21.3799 9.39488 21.6169 9.8325 21.6259 10.3144C21.6375 10.9365 21.9683 11.4863 22.4891 11.7495C22.6718 11.8418 22.8225 11.9805 22.9365 12.162C23.16 12.5149 23.1604 12.9881 22.9376 13.338C22.7438 13.6425 22.4456 13.8311 22.0976 13.8686C21.7905 13.9005 21.4883 13.8019 21.2531 13.6031L21.1804 13.2304C21.1253 12.9461 21.2906 12.6637 21.5651 12.5738C21.762 12.5092 21.8693 12.2974 21.8048 12.1005C21.7399 11.904 21.5288 11.7971 21.3315 11.8612C20.8819 12.009 20.5635 12.381 20.4596 12.8183L19.0658 11.4113C18.7459 11.0884 18.5906 10.644 18.6401 10.1918C18.6904 9.73238 18.9375 9.33788 19.3358 9.081Z" fill="black"/>
<path d="M20.1266 11.4799H20.1319C20.4304 11.4799 20.7113 11.3644 20.9231 11.154C21.3641 10.7175 21.3679 10.0039 20.931 9.56287C20.4949 9.12225 19.7809 9.11888 19.3399 9.55538C18.8993 9.99188 18.8963 10.7055 19.3328 11.1461C19.5439 11.3599 19.8259 11.4784 20.1266 11.4799Z" fill="black"/>
</g>
<defs>
<clipPath id="clip0_195_7991">
<rect width="24" height="24" fill="white" transform="translate(0.604492)"/>
</clipPath>
</defs>
</svg>
