<svg width="29" height="29" viewBox="0 0 29 29" fill="none" xmlns="http://www.w3.org/2000/svg">
<path d="M8.64648 25.25C8.64648 25.7678 8.22675 26.1875 7.70898 26.1875C7.19122 26.1875 6.77148 25.7678 6.77148 25.25C6.77148 24.7322 7.19122 24.3125 7.70898 24.3125C8.22675 24.3125 8.64648 24.7322 8.64648 25.25Z" fill="#737373" stroke="#737373" stroke-width="1.125"/>
<path d="M18.3965 25.25C18.3965 25.7678 17.9768 26.1875 17.459 26.1875C16.9412 26.1875 16.5215 25.7678 16.5215 25.25C16.5215 24.7322 16.9412 24.3125 17.459 24.3125C17.9768 24.3125 18.3965 24.7322 18.3965 25.25Z" fill="#737373" stroke="#737373" stroke-width="1.125"/>
<path d="M4.17461 11.75H20.9934L18.5184 20.4125C18.4301 20.7269 18.241 21.0036 17.9801 21.2C17.7193 21.3965 17.4012 21.5019 17.0746 21.5H8.09336C7.76681 21.5019 7.44868 21.3965 7.18785 21.2C6.92702 21.0036 6.73792 20.7269 6.64961 20.4125L3.25586 8.54375C3.21101 8.38696 3.11628 8.24905 2.98602 8.15093C2.85576 8.05282 2.69707 7.99983 2.53398 8H0.958984" stroke="#737373" stroke-width="1.5" stroke-linecap="round" stroke-linejoin="round"/>
<rect x="11.6465" y="1.4375" width="16.125" height="16.125" rx="8.0625" fill="black"/>
<rect x="11.6465" y="1.4375" width="16.125" height="16.125" rx="8.0625" stroke="black" stroke-width="1.125"/>
<path d="M16.6371 13.5V12.1705L19.7436 9.29403C20.0078 9.03835 20.2294 8.80824 20.4084 8.60369C20.5902 8.39915 20.728 8.19886 20.8217 8.00284C20.9155 7.80398 20.9624 7.58949 20.9624 7.35938C20.9624 7.10369 20.9041 6.88352 20.7876 6.69886C20.6712 6.51136 20.5121 6.3679 20.3104 6.26847C20.1087 6.16619 19.88 6.11506 19.6243 6.11506C19.3572 6.11506 19.1243 6.16903 18.9254 6.27699C18.7266 6.38494 18.5732 6.53977 18.4652 6.74148C18.3572 6.94318 18.3033 7.18324 18.3033 7.46165H16.5518C16.5518 6.89062 16.6811 6.39489 16.9396 5.97443C17.1982 5.55398 17.5604 5.22869 18.0263 4.99858C18.4922 4.76847 19.0291 4.65341 19.6371 4.65341C20.2621 4.65341 20.8061 4.7642 21.2692 4.9858C21.7351 5.20455 22.0973 5.50852 22.3558 5.89773C22.6143 6.28693 22.7436 6.73295 22.7436 7.2358C22.7436 7.56534 22.6783 7.89062 22.5476 8.21165C22.4197 8.53267 22.1911 8.8892 21.8615 9.28125C21.532 9.67045 21.0675 10.1378 20.468 10.6832L19.1939 11.9318V11.9915H22.8587V13.5H16.6371Z" fill="white"/>
</svg>
