<svg width="25" height="24" viewBox="0 0 25 24" fill="none" xmlns="http://www.w3.org/2000/svg">
<path d="M11.9189 20.1438H17.746C18.3309 20.1438 19.0314 20.032 19.0314 19.5011C19.0314 19.2749 19.0314 19.0962 18.2469 18.7462C16.6324 18.0769 15.2478 16.9519 14.2622 15.5087C13.3599 14.1195 11.5023 13.7249 10.1132 14.6272C9.24432 15.1916 8.72826 16.1644 8.74824 17.2003C8.83435 18.8779 10.2396 20.1824 11.9189 20.1438ZM12.8187 16.2876C13.6469 16.2876 14.3184 16.9591 14.3184 17.7873C14.3184 18.6155 13.6469 19.2869 12.8187 19.2869C11.9905 19.2869 11.3191 18.6155 11.3191 17.7873C11.3191 16.9591 11.9905 16.2876 12.8187 16.2876Z" fill="black"/>
<path d="M4.21472 19.6824L4.64618 20.469C4.73646 20.639 4.93047 20.7261 5.11751 20.6807C5.77035 20.5136 6.41144 20.3036 7.03661 20.0521C6.8077 19.6973 6.62077 19.3172 6.47962 18.9193C5.7477 19.2376 4.98997 19.4929 4.21472 19.6824Z" fill="black"/>
<path d="M11.919 21.8577H17.7461C19.5671 21.8577 20.7453 20.8487 20.7453 19.2869C20.7453 18.0842 19.8164 17.5688 18.9457 17.1802C17.6328 16.6432 16.5042 15.7366 15.6967 14.5704C14.2767 12.3889 11.3571 11.7715 9.17555 13.1916C7.81309 14.0784 7.00384 15.6049 7.03447 17.2302C7.14051 19.8411 9.3062 21.8928 11.919 21.8577ZM8.9964 14.4418C10.4885 12.9222 12.93 12.8999 14.4496 14.3919C14.649 14.5877 14.8265 14.8046 14.9791 15.0387C15.8756 16.3435 17.1323 17.3594 18.5961 17.9625C19.7898 18.4951 19.8884 18.9934 19.8884 19.5011C19.8884 19.9523 19.6793 21.0008 17.7435 21.0008H11.919C9.77296 21.0375 7.98762 19.3594 7.89142 17.2153C7.86967 16.1794 8.2683 15.1789 8.9964 14.4418Z" fill="black"/>
<path d="M12.8187 18.43C13.1737 18.43 13.4614 18.1422 13.4614 17.7873C13.4614 17.4323 13.1737 17.1446 12.8187 17.1446C12.4638 17.1446 12.176 17.4323 12.176 17.7873C12.176 18.1422 12.4638 18.43 12.8187 18.43Z" fill="black"/>
<path d="M22.3362 2.55838C22.4462 2.59042 22.5644 2.57746 22.6648 2.52238C22.8713 2.4068 22.945 2.1457 22.8294 1.93919C22.7751 1.84233 22.6854 1.77033 22.5792 1.73829C22.4692 1.70586 22.3509 1.71881 22.2505 1.77429C22.1515 1.82968 22.0784 1.92216 22.0474 2.03137C21.9811 2.25607 22.1095 2.49195 22.3342 2.55828C22.3353 2.55858 22.3364 2.55894 22.3375 2.55924L22.3362 2.55838Z" fill="black"/>
<path d="M19.9377 3.50099C20.2665 3.31842 20.6763 3.37406 20.9445 3.63766C21.6204 4.30632 22.6547 4.45273 23.4896 3.99803C24.5264 3.42803 24.9049 2.12542 24.3348 1.08862C24.3247 1.07024 24.3143 1.05201 24.3037 1.03394C23.6716 0.0310306 22.3617 -0.296092 21.3323 0.291825L16.1608 3.12953L17.1925 5.00836L19.9377 3.50099ZM21.2231 1.78971C21.4211 1.108 22.1343 0.715904 22.816 0.913985C23.4978 1.11207 23.8898 1.82526 23.6918 2.50697C23.5324 3.05542 23.0303 3.43295 22.4592 3.43376C22.3373 3.43361 22.216 3.41628 22.0988 3.38234C21.4188 3.18612 21.0266 2.47579 21.2229 1.79573C21.2234 1.79403 21.2239 1.79232 21.2244 1.79061L21.2231 1.78971Z" fill="black"/>
<path d="M3.77809 18.8914C4.63434 18.7153 5.46793 18.4432 6.26317 18.0803C6.21286 17.8048 6.18419 17.5257 6.17746 17.2457C6.12228 14.1699 8.57095 11.6318 11.6467 11.5766C13.0561 11.5513 14.4227 12.0614 15.4709 13.0039C16.1404 12.5608 16.7596 12.046 17.3176 11.4687L15.7751 8.6528L15.7725 8.64894L13.5308 4.57208L1.49481 11.1705C0.666537 11.6276 0.365273 12.6693 0.821688 13.4979L3.77809 18.8914ZM2.28407 11.7189C2.90654 11.3776 3.68781 11.6054 4.0292 12.2279C4.37053 12.8504 4.14267 13.6316 3.52021 13.973C2.89895 14.3138 2.11913 14.0875 1.77674 13.4671C1.43561 12.8441 1.66242 12.0625 2.28407 11.7189Z" fill="black"/>
<path d="M18.1042 13.5583C18.2426 13.4251 18.2744 13.2155 18.1818 13.0472L17.7495 12.2601C17.2265 12.7634 16.6633 13.2232 16.0656 13.635C16.1899 13.7848 16.3063 13.941 16.4144 14.1029C16.5379 14.2894 16.6737 14.4675 16.821 14.6359C17.2687 14.3013 17.6972 13.9415 18.1042 13.5583Z" fill="black"/>
<path d="M16.5236 8.24068C16.5844 8.35335 16.6885 8.4362 16.812 8.46989C16.9357 8.50915 17.07 8.49615 17.1839 8.43389C17.3991 8.31901 17.4959 8.06243 17.4102 7.83402L16.6261 5.75555L15.4092 3.54041L14.2798 4.16211L16.5223 8.23982L16.5236 8.24068Z" fill="black"/>
<path d="M24.173 22.7146H1.03593C0.799288 22.7146 0.607483 22.9065 0.607483 23.1431V23.5715C0.607483 23.8081 0.799338 24 1.03593 24H24.173C24.4097 24 24.6015 23.8081 24.6015 23.5715V23.1431C24.6015 22.9065 24.4097 22.7146 24.173 22.7146Z" fill="black"/>
</svg>
